<svg width="16" height="16" viewBox="0 0 16 16" fill="none" xmlns="http://www.w3.org/2000/svg">
<g clip-path="url(#clip0_7360_64982)">
<path d="M12.408 1H3.59198C2.63933 1 1.7257 1.38913 1.05207 2.0818C0.37844 2.77446 0 3.71391 0 4.69349V9.62877C0 10.6083 0.37844 11.5478 1.05207 12.2405C1.7257 12.9331 2.63933 13.3223 3.59198 13.3223H12.408C12.4293 13.3223 12.4482 13.3223 12.4682 13.3223C13.0161 13.3223 15.2042 13.3649 16 14V4.69349C16 3.71391 15.6216 2.77446 14.9479 2.0818C14.2743 1.38913 13.3607 1 12.408 1Z" fill="#6E78D1"/>
<path d="M5.5158 7.77878L6.10135 5.7545C6.43594 4.57521 6.45453 4.11092 6.45453 4.11092C6.45453 4.11092 6.6683 4.01807 6.98431 4.01807C7.55127 4.01807 7.74645 4.20378 7.77433 4.88164L7.96952 9.44092L10.005 5.19735C10.3024 4.5845 10.3675 4.3245 10.4046 4.11092C10.4046 4.11092 10.5534 4.01807 10.9344 4.01807C11.6222 4.01807 11.7523 4.3245 11.6315 5.03021L10.8694 9.40378C10.7764 9.94235 10.9716 10.1745 11.2876 10.1745C11.743 10.1745 12.1334 9.62664 12.2635 9.36664C12.4029 9.36664 12.4587 9.4595 12.4401 9.60807C12.3565 10.1745 11.6129 10.9824 10.7578 10.9824C10.0979 10.9824 9.6425 10.5366 9.6425 9.83092C9.6425 9.40378 9.68897 9.03235 9.77262 8.54021L10.2466 5.83807L8.30411 9.93307C8.06246 10.4438 7.9881 10.8431 7.9881 10.8431C7.9881 10.8431 7.77433 10.9824 7.40256 10.9824C6.90066 10.9824 6.79842 10.6202 6.77054 10.0445L6.58465 5.80092L5.66451 9.20878C5.31132 10.5274 4.8559 10.9824 4.24247 10.9824C3.82422 10.9824 3.55469 10.6945 3.55469 10.2674C3.55469 9.94235 3.68481 9.80307 3.68481 9.80307C3.68481 9.80307 3.78705 9.87735 4.01011 9.87735C4.61425 9.87735 5.0232 9.48735 5.5158 7.77878Z" fill="#FFC468"/>
</g>
<defs>
<clipPath id="clip0_7360_64982">
<rect width="16" height="16" fill="white"/>
</clipPath>
</defs>
</svg>
