<svg width="36" height="36" viewBox="0 0 36 36" fill="none" xmlns="http://www.w3.org/2000/svg">
<path d="M16.65 25.11V10.89C16.65 9.54 16.074 9 14.643 9H11.007C9.576 9 9 9.54 9 10.89V25.11C9 26.46 9.576 27 11.007 27H14.643C16.074 27 16.65 26.46 16.65 25.11Z" stroke="white" stroke-width="2" stroke-linecap="round" stroke-linejoin="round"/>
<path d="M27.0001 14.868V10.782C27.0001 9.513 26.4241 9 24.9931 9H21.3571C19.9261 9 19.3501 9.513 19.3501 10.782V14.859C19.3501 16.137 19.9261 16.641 21.3571 16.641H24.9931C26.4241 16.65 27.0001 16.137 27.0001 14.868Z" stroke="white" stroke-width="2" stroke-linecap="round" stroke-linejoin="round"/>
<path d="M27.0001 24.9931V21.3571C27.0001 19.9261 26.4241 19.3501 24.9931 19.3501H21.3571C19.9261 19.3501 19.3501 19.9261 19.3501 21.3571V24.9931C19.3501 26.4241 19.9261 27.0001 21.3571 27.0001H24.9931C26.4241 27.0001 27.0001 26.4241 27.0001 24.9931Z" stroke="white" stroke-width="2" stroke-linecap="round" stroke-linejoin="round"/>
</svg>
