<svg width="356" height="595" viewBox="0 0 356 595" fill="none" xmlns="http://www.w3.org/2000/svg">
<path opacity="0.1" d="M405 608H6.65298V543.125L218.717 345.171C252.536 313.01 278.316 283.9 296.057 257.839C314.353 231.777 323.501 204.885 323.501 177.16C323.501 156.644 318.511 138.068 308.532 121.434C299.107 104.799 285.801 91.4911 268.614 81.5103C251.427 71.5294 231.468 66.539 208.737 66.539C177.136 66.539 148.306 75.4108 122.248 93.1546C96.191 110.344 73.46 134.741 54.0554 166.347L0 115.611C28.2752 77.3516 59.8768 48.518 94.8049 29.1108C130.287 9.70359 169.374 0 212.064 0C250.318 0 283.583 8.04012 311.858 24.1204C340.133 39.6461 362.033 60.7168 377.556 87.3324C393.634 113.948 401.673 144.168 401.673 177.992C401.673 203.498 396.129 227.896 385.041 251.185C374.507 274.473 358.706 298.316 337.639 322.714C316.571 347.112 289.682 374.005 256.971 403.393C240.339 418.918 223.429 434.721 206.242 450.802C189.055 466.327 171.869 481.853 154.682 497.379C138.049 512.905 121.417 528.153 104.784 543.125H405V608Z" fill="#6E78D1"/>
</svg>
