<svg width="374" height="585" viewBox="0 0 374 585" fill="none" xmlns="http://www.w3.org/2000/svg">
<path opacity="0.1" d="M0 493.012L51.7017 444.506C70.7916 471.012 93.5934 491.952 120.107 507.325C146.621 522.699 176.581 530.386 209.989 530.386C248.699 530.386 279.72 520.313 303.052 500.169C326.914 479.494 338.845 453.253 338.845 421.446C338.845 399.711 333.012 381.157 321.346 365.783C309.68 349.88 293.772 337.952 273.621 330C253.471 321.518 230.669 317.277 205.216 317.277H150.333V253.663H205.216C227.488 253.663 247.373 249.687 264.872 241.735C282.901 233.783 296.953 222.916 307.029 209.133C317.634 194.819 322.937 178.386 322.937 159.831C322.937 131.205 312.597 108.145 291.916 90.6506C271.765 72.6265 245.252 63.6144 212.375 63.6144C181.619 63.6144 154.31 71.3012 130.447 86.6747C106.585 101.518 85.6393 122.458 67.6099 149.494L15.9082 100.988C41.3614 69.1807 70.5264 44.5301 103.403 27.0361C136.811 9.01204 173.4 0 213.17 0C250.289 0 282.636 6.89155 310.21 20.6747C338.315 34.4578 360.321 53.2771 376.229 77.1325C392.138 100.458 400.092 126.964 400.092 156.651C400.092 183.157 391.873 207.012 375.434 228.217C359.526 249.422 336.989 266.12 307.824 278.313C279.189 289.976 246.047 295.807 208.398 295.807L219.533 266.386C258.243 266.386 292.446 273.277 322.142 287.06C351.837 300.313 374.904 318.602 391.342 341.928C407.781 365.253 416 392.289 416 423.036C416 455.373 407.25 484.53 389.751 510.506C372.783 535.952 348.92 556.361 318.164 571.735C287.409 586.578 251.88 594 211.579 594C168.627 594 129.122 585.253 93.0631 567.759C57.5347 549.735 26.5137 524.819 0 493.012Z" fill="#F2F2F2"/>
</svg>
