<svg width="36" height="36" viewBox="0 0 36 36" fill="none" xmlns="http://www.w3.org/2000/svg">
<path d="M25.2003 17.9998C25.2003 18.4969 24.7973 18.8998 24.3003 18.8998H18.9003V24.2998C18.9003 24.7969 18.4973 25.1998 18.0003 25.1998C17.5032 25.1998 17.1003 24.7969 17.1003 24.2998V18.8998H11.7003C11.2032 18.8998 10.8003 18.4969 10.8003 17.9998C10.8003 17.5027 11.2032 17.0998 11.7003 17.0998H17.1003V11.6998C17.1003 11.2027 17.5032 10.7998 18.0003 10.7998C18.4973 10.7998 18.9003 11.2027 18.9003 11.6998V17.0998H24.3003C24.7973 17.0998 25.2003 17.5027 25.2003 17.9998Z" fill="white"/>
</svg>
